<mxfile host="Electron" modified="2025-04-18T18:41:02.108Z" agent="Mozilla/5.0 (X11; Linux x86_64) AppleWebKit/537.36 (KHTML, like Gecko) draw.io/22.1.2 Chrome/114.0.5735.289 Electron/25.9.4 Safari/537.36" etag="uqQOk0U2Luw6kIL6Cz7y" version="22.1.2" type="device">
  <diagram name="1 oldal" id="9zMQckgTDTX1H3_rx6Bh">
    <mxGraphModel dx="637" dy="428" grid="0" gridSize="10" guides="0" tooltips="1" connect="1" arrows="1" fold="1" page="1" pageScale="1" pageWidth="827" pageHeight="1169" math="0" shadow="0">
      <root>
        <mxCell id="0" />
        <mxCell id="1" parent="0" />
        <mxCell id="uyWOBw3hdMBUtZMzsZzs-72" value="" style="rounded=0;whiteSpace=wrap;html=1;strokeColor=#4D4D4D;strokeWidth=0.5;" parent="1" vertex="1">
          <mxGeometry x="511" y="237" width="32" height="333" as="geometry" />
        </mxCell>
        <mxCell id="LfwBUIai21lKe5tmic68-26" value="A" style="rounded=0;whiteSpace=wrap;html=1;" parent="1" vertex="1">
          <mxGeometry x="444" y="400" width="50" height="20" as="geometry" />
        </mxCell>
        <mxCell id="LfwBUIai21lKe5tmic68-27" value="A" style="rounded=0;whiteSpace=wrap;html=1;" parent="1" vertex="1">
          <mxGeometry x="444" y="500" width="50" height="20" as="geometry" />
        </mxCell>
        <mxCell id="LfwBUIai21lKe5tmic68-28" value="B" style="rounded=0;whiteSpace=wrap;html=1;" parent="1" vertex="1">
          <mxGeometry x="444" y="520" width="50" height="20" as="geometry" />
        </mxCell>
        <mxCell id="LfwBUIai21lKe5tmic68-29" value="B" style="rounded=0;whiteSpace=wrap;html=1;" parent="1" vertex="1">
          <mxGeometry x="444" y="480" width="50" height="20" as="geometry" />
        </mxCell>
        <mxCell id="uyWOBw3hdMBUtZMzsZzs-71" style="edgeStyle=orthogonalEdgeStyle;rounded=0;orthogonalLoop=1;jettySize=auto;html=1;exitX=0.5;exitY=1;exitDx=0;exitDy=0;entryX=0.5;entryY=1;entryDx=0;entryDy=0;" parent="1" source="LfwBUIai21lKe5tmic68-30" target="uyWOBw3hdMBUtZMzsZzs-31" edge="1">
          <mxGeometry relative="1" as="geometry" />
        </mxCell>
        <mxCell id="LfwBUIai21lKe5tmic68-30" value="B" style="rounded=0;whiteSpace=wrap;html=1;" parent="1" vertex="1">
          <mxGeometry x="444" y="540" width="50" height="20" as="geometry" />
        </mxCell>
        <mxCell id="LfwBUIai21lKe5tmic68-31" value="C" style="rounded=0;whiteSpace=wrap;html=1;" parent="1" vertex="1">
          <mxGeometry x="444" y="440" width="50" height="20" as="geometry" />
        </mxCell>
        <mxCell id="LfwBUIai21lKe5tmic68-32" value="C" style="rounded=0;whiteSpace=wrap;html=1;" parent="1" vertex="1">
          <mxGeometry x="444" y="360" width="50" height="20" as="geometry" />
        </mxCell>
        <mxCell id="LfwBUIai21lKe5tmic68-33" value="C" style="rounded=0;whiteSpace=wrap;html=1;fillColor=#FFF5F5;" parent="1" vertex="1">
          <mxGeometry x="444" y="320" width="50" height="20" as="geometry" />
        </mxCell>
        <mxCell id="LfwBUIai21lKe5tmic68-34" value="D" style="rounded=0;whiteSpace=wrap;html=1;" parent="1" vertex="1">
          <mxGeometry x="444" y="300" width="50" height="20" as="geometry" />
        </mxCell>
        <mxCell id="LfwBUIai21lKe5tmic68-35" value="F" style="rounded=0;whiteSpace=wrap;html=1;" parent="1" vertex="1">
          <mxGeometry x="444" y="420" width="50" height="20" as="geometry" />
        </mxCell>
        <mxCell id="LfwBUIai21lKe5tmic68-36" value="F" style="rounded=0;whiteSpace=wrap;html=1;" parent="1" vertex="1">
          <mxGeometry x="444" y="280" width="50" height="20" as="geometry" />
        </mxCell>
        <mxCell id="LfwBUIai21lKe5tmic68-37" value="G" style="rounded=0;whiteSpace=wrap;html=1;fillColor=#FFF5F5;" parent="1" vertex="1">
          <mxGeometry x="444" y="460" width="50" height="20" as="geometry" />
        </mxCell>
        <mxCell id="LfwBUIai21lKe5tmic68-38" value="G" style="rounded=0;whiteSpace=wrap;html=1;" parent="1" vertex="1">
          <mxGeometry x="444" y="380" width="50" height="20" as="geometry" />
        </mxCell>
        <mxCell id="LfwBUIai21lKe5tmic68-39" value="G" style="rounded=0;whiteSpace=wrap;html=1;" parent="1" vertex="1">
          <mxGeometry x="444" y="340" width="50" height="20" as="geometry" />
        </mxCell>
        <mxCell id="LfwBUIai21lKe5tmic68-57" value="" style="endArrow=classicThin;html=1;rounded=0;entryX=0;entryY=0.5;entryDx=0;entryDy=0;endFill=1;endSize=4;dashed=1;dashPattern=1 1;" parent="1" target="LfwBUIai21lKe5tmic68-26" edge="1">
          <mxGeometry width="50" height="50" relative="1" as="geometry">
            <mxPoint x="400" y="460" as="sourcePoint" />
            <mxPoint x="400" y="470" as="targetPoint" />
          </mxGeometry>
        </mxCell>
        <mxCell id="LfwBUIai21lKe5tmic68-58" value="" style="endArrow=classicThin;html=1;rounded=0;entryX=0;entryY=0.5;entryDx=0;entryDy=0;endFill=1;endSize=4;dashed=1;dashPattern=1 1;" parent="1" target="LfwBUIai21lKe5tmic68-27" edge="1">
          <mxGeometry width="50" height="50" relative="1" as="geometry">
            <mxPoint x="400" y="517" as="sourcePoint" />
            <mxPoint x="400" y="470" as="targetPoint" />
          </mxGeometry>
        </mxCell>
        <mxCell id="LfwBUIai21lKe5tmic68-59" value="" style="endArrow=classicThin;html=1;rounded=0;entryX=0;entryY=0.5;entryDx=0;entryDy=0;endFill=1;endSize=4;dashed=1;dashPattern=1 1;" parent="1" target="LfwBUIai21lKe5tmic68-28" edge="1">
          <mxGeometry width="50" height="50" relative="1" as="geometry">
            <mxPoint x="399" y="523" as="sourcePoint" />
            <mxPoint x="430" y="430" as="targetPoint" />
          </mxGeometry>
        </mxCell>
        <mxCell id="LfwBUIai21lKe5tmic68-60" value="" style="endArrow=classicThin;html=1;rounded=0;entryX=0;entryY=0.5;entryDx=0;entryDy=0;endFill=1;endSize=4;dashed=1;dashPattern=1 1;" parent="1" target="LfwBUIai21lKe5tmic68-29" edge="1">
          <mxGeometry width="50" height="50" relative="1" as="geometry">
            <mxPoint x="400" y="490" as="sourcePoint" />
            <mxPoint x="410" y="440" as="targetPoint" />
          </mxGeometry>
        </mxCell>
        <mxCell id="LfwBUIai21lKe5tmic68-61" value="" style="endArrow=classicThin;html=1;rounded=0;entryX=0;entryY=0.5;entryDx=0;entryDy=0;endFill=1;endSize=4;dashed=1;dashPattern=1 1;" parent="1" target="LfwBUIai21lKe5tmic68-30" edge="1">
          <mxGeometry width="50" height="50" relative="1" as="geometry">
            <mxPoint x="399" y="521" as="sourcePoint" />
            <mxPoint x="410" y="380" as="targetPoint" />
          </mxGeometry>
        </mxCell>
        <mxCell id="LfwBUIai21lKe5tmic68-62" value="" style="endArrow=classicThin;html=1;rounded=0;entryX=0;entryY=0.5;entryDx=0;entryDy=0;endFill=1;endSize=4;dashed=1;dashPattern=1 1;" parent="1" target="LfwBUIai21lKe5tmic68-31" edge="1">
          <mxGeometry width="50" height="50" relative="1" as="geometry">
            <mxPoint x="400" y="450" as="sourcePoint" />
            <mxPoint x="410" y="320" as="targetPoint" />
          </mxGeometry>
        </mxCell>
        <mxCell id="LfwBUIai21lKe5tmic68-63" value="" style="endArrow=classicThin;html=1;rounded=0;entryX=0;entryY=0.5;entryDx=0;entryDy=0;endFill=1;endSize=4;dashed=1;dashPattern=1 1;" parent="1" target="LfwBUIai21lKe5tmic68-32" edge="1">
          <mxGeometry width="50" height="50" relative="1" as="geometry">
            <mxPoint x="400" y="392" as="sourcePoint" />
            <mxPoint x="410" y="270" as="targetPoint" />
          </mxGeometry>
        </mxCell>
        <mxCell id="LfwBUIai21lKe5tmic68-64" value="" style="endArrow=classicThin;html=1;rounded=0;entryX=0;entryY=0.5;entryDx=0;entryDy=0;endFill=1;endSize=4;dashed=1;dashPattern=1 1;" parent="1" target="LfwBUIai21lKe5tmic68-33" edge="1">
          <mxGeometry width="50" height="50" relative="1" as="geometry">
            <mxPoint x="399" y="359" as="sourcePoint" />
            <mxPoint x="410" y="360" as="targetPoint" />
          </mxGeometry>
        </mxCell>
        <mxCell id="LfwBUIai21lKe5tmic68-65" value="" style="endArrow=classicThin;html=1;rounded=0;entryX=0;entryY=0.5;entryDx=0;entryDy=0;endFill=1;endSize=4;dashed=1;dashPattern=1 1;" parent="1" target="LfwBUIai21lKe5tmic68-34" edge="1">
          <mxGeometry width="50" height="50" relative="1" as="geometry">
            <mxPoint x="400" y="339" as="sourcePoint" />
            <mxPoint x="420" y="330" as="targetPoint" />
          </mxGeometry>
        </mxCell>
        <mxCell id="LfwBUIai21lKe5tmic68-66" value="" style="endArrow=classicThin;html=1;rounded=0;entryX=0;entryY=0.5;entryDx=0;entryDy=0;endFill=1;endSize=4;dashed=1;dashPattern=1 1;" parent="1" target="LfwBUIai21lKe5tmic68-35" edge="1">
          <mxGeometry width="50" height="50" relative="1" as="geometry">
            <mxPoint x="400" y="409" as="sourcePoint" />
            <mxPoint x="420" y="310" as="targetPoint" />
          </mxGeometry>
        </mxCell>
        <mxCell id="LfwBUIai21lKe5tmic68-67" value="" style="endArrow=classicThin;html=1;rounded=0;entryX=0;entryY=0.5;entryDx=0;entryDy=0;endFill=1;endSize=4;dashed=1;dashPattern=1 1;" parent="1" target="LfwBUIai21lKe5tmic68-36" edge="1">
          <mxGeometry width="50" height="50" relative="1" as="geometry">
            <mxPoint x="399" y="312" as="sourcePoint" />
            <mxPoint x="420" y="290" as="targetPoint" />
          </mxGeometry>
        </mxCell>
        <mxCell id="LfwBUIai21lKe5tmic68-68" value="" style="endArrow=classicThin;html=1;rounded=0;entryX=0;entryY=0.5;entryDx=0;entryDy=0;endFill=1;endSize=4;dashed=1;dashPattern=1 1;" parent="1" target="LfwBUIai21lKe5tmic68-37" edge="1">
          <mxGeometry width="50" height="50" relative="1" as="geometry">
            <mxPoint x="399" y="420" as="sourcePoint" />
            <mxPoint x="420" y="260" as="targetPoint" />
          </mxGeometry>
        </mxCell>
        <mxCell id="LfwBUIai21lKe5tmic68-69" value="" style="endArrow=classicThin;html=1;rounded=0;entryX=0;entryY=0.5;entryDx=0;entryDy=0;endFill=1;endSize=4;dashed=1;dashPattern=1 1;" parent="1" target="LfwBUIai21lKe5tmic68-38" edge="1">
          <mxGeometry width="50" height="50" relative="1" as="geometry">
            <mxPoint x="399" y="362" as="sourcePoint" />
            <mxPoint x="410" y="260" as="targetPoint" />
          </mxGeometry>
        </mxCell>
        <mxCell id="LfwBUIai21lKe5tmic68-70" value="" style="endArrow=classicThin;html=1;rounded=0;entryX=0;entryY=0.5;entryDx=0;entryDy=0;endFill=1;endSize=4;dashed=1;dashPattern=1 1;" parent="1" target="LfwBUIai21lKe5tmic68-39" edge="1">
          <mxGeometry width="50" height="50" relative="1" as="geometry">
            <mxPoint x="400" y="329" as="sourcePoint" />
            <mxPoint x="400" y="240" as="targetPoint" />
          </mxGeometry>
        </mxCell>
        <mxCell id="uyWOBw3hdMBUtZMzsZzs-5" value="" style="rounded=0;whiteSpace=wrap;html=1;strokeWidth=0.5;fontStyle=1" parent="1" vertex="1">
          <mxGeometry x="514" y="400" width="26" height="20" as="geometry" />
        </mxCell>
        <mxCell id="uyWOBw3hdMBUtZMzsZzs-6" value="" style="rounded=0;whiteSpace=wrap;html=1;strokeWidth=0.5;fontStyle=1;fillColor=#F2F2F2;" parent="1" vertex="1">
          <mxGeometry x="514" y="500" width="26" height="20" as="geometry" />
        </mxCell>
        <mxCell id="uyWOBw3hdMBUtZMzsZzs-8" value="" style="rounded=0;whiteSpace=wrap;html=1;strokeWidth=0.5;fontStyle=1;fillColor=#F2F2F2;" parent="1" vertex="1">
          <mxGeometry x="514" y="480" width="26" height="20" as="geometry" />
        </mxCell>
        <mxCell id="uyWOBw3hdMBUtZMzsZzs-9" value="" style="rounded=0;whiteSpace=wrap;html=1;strokeWidth=0.5;fontStyle=1;fillColor=#F2F2F2;" parent="1" vertex="1">
          <mxGeometry x="514" y="540" width="26" height="20" as="geometry" />
        </mxCell>
        <mxCell id="uyWOBw3hdMBUtZMzsZzs-10" value="" style="rounded=0;whiteSpace=wrap;html=1;strokeWidth=0.5;fontStyle=1" parent="1" vertex="1">
          <mxGeometry x="514" y="440" width="26" height="20" as="geometry" />
        </mxCell>
        <mxCell id="uyWOBw3hdMBUtZMzsZzs-11" value="S" style="rounded=0;whiteSpace=wrap;html=1;strokeWidth=0.5;fontStyle=1" parent="1" vertex="1">
          <mxGeometry x="514" y="360" width="26" height="20" as="geometry" />
        </mxCell>
        <mxCell id="uyWOBw3hdMBUtZMzsZzs-12" value="×" style="rounded=0;whiteSpace=wrap;html=1;strokeWidth=0.5;fontStyle=1;fillColor=#FFCCCC;fontColor=#CC0000;fontSize=14;" parent="1" vertex="1">
          <mxGeometry x="514" y="320" width="26" height="20" as="geometry" />
        </mxCell>
        <mxCell id="uyWOBw3hdMBUtZMzsZzs-13" value="" style="rounded=0;whiteSpace=wrap;html=1;strokeWidth=0.5;fontStyle=1;fontColor=#004C99;fillColor=#CCE5FF;" parent="1" vertex="1">
          <mxGeometry x="514" y="300" width="26" height="20" as="geometry" />
        </mxCell>
        <mxCell id="uyWOBw3hdMBUtZMzsZzs-14" value="" style="rounded=0;whiteSpace=wrap;html=1;strokeWidth=0.5;fontStyle=1;fontColor=#004C99;fillColor=#CCE5FF;" parent="1" vertex="1">
          <mxGeometry x="514" y="420" width="26" height="20" as="geometry" />
        </mxCell>
        <mxCell id="uyWOBw3hdMBUtZMzsZzs-15" value="" style="rounded=0;whiteSpace=wrap;html=1;strokeWidth=0.5;fontStyle=1;fillColor=#F2F2F2;" parent="1" vertex="1">
          <mxGeometry x="514" y="280" width="26" height="20" as="geometry" />
        </mxCell>
        <mxCell id="uyWOBw3hdMBUtZMzsZzs-16" value="×" style="rounded=0;whiteSpace=wrap;html=1;strokeWidth=0.5;fontStyle=1;fillColor=#FFCCCC;fontColor=#CC0000;fontSize=14;" parent="1" vertex="1">
          <mxGeometry x="514" y="460" width="26" height="20" as="geometry" />
        </mxCell>
        <mxCell id="uyWOBw3hdMBUtZMzsZzs-17" value="" style="rounded=0;whiteSpace=wrap;html=1;strokeWidth=0.5;fontStyle=1;fillColor=#F2F2F2;" parent="1" vertex="1">
          <mxGeometry x="514" y="380" width="26" height="20" as="geometry" />
        </mxCell>
        <mxCell id="uyWOBw3hdMBUtZMzsZzs-18" value="" style="rounded=0;whiteSpace=wrap;html=1;strokeWidth=0.5;fontStyle=1" parent="1" vertex="1">
          <mxGeometry x="514" y="340" width="26" height="20" as="geometry" />
        </mxCell>
        <mxCell id="uyWOBw3hdMBUtZMzsZzs-19" value="A" style="rounded=0;whiteSpace=wrap;html=1;strokeWidth=0.5;fontStyle=1;fillColor=#CCFF99;fontColor=#006633;" parent="1" vertex="1">
          <mxGeometry x="514" y="260" width="26" height="20" as="geometry" />
        </mxCell>
        <mxCell id="uyWOBw3hdMBUtZMzsZzs-20" value="F" style="rounded=0;whiteSpace=wrap;html=1;strokeWidth=0.5;fontStyle=1;fillColor=#CCFF99;fontColor=#006633;" parent="1" vertex="1">
          <mxGeometry x="514" y="240" width="26" height="20" as="geometry" />
        </mxCell>
        <mxCell id="uyWOBw3hdMBUtZMzsZzs-21" value="" style="rounded=0;whiteSpace=wrap;html=1;strokeWidth=0.5;fontStyle=1;fillColor=#F2F2F2;" parent="1" vertex="1">
          <mxGeometry x="514" y="440" width="26" height="20" as="geometry" />
        </mxCell>
        <mxCell id="uyWOBw3hdMBUtZMzsZzs-22" value="" style="rounded=0;whiteSpace=wrap;html=1;strokeWidth=0.5;fontStyle=1;fillColor=#F2F2F2;" parent="1" vertex="1">
          <mxGeometry x="514" y="400" width="26" height="20" as="geometry" />
        </mxCell>
        <mxCell id="uyWOBw3hdMBUtZMzsZzs-23" value="" style="rounded=0;whiteSpace=wrap;html=1;strokeWidth=0.5;fontStyle=1;fillColor=#F2F2F2;" parent="1" vertex="1">
          <mxGeometry x="514" y="360" width="26" height="20" as="geometry" />
        </mxCell>
        <mxCell id="uyWOBw3hdMBUtZMzsZzs-24" value="" style="rounded=0;whiteSpace=wrap;html=1;strokeWidth=0.5;fontStyle=1;fillColor=#F2F2F2;" parent="1" vertex="1">
          <mxGeometry x="514" y="340" width="26" height="20" as="geometry" />
        </mxCell>
        <mxCell id="uyWOBw3hdMBUtZMzsZzs-25" value="+" style="text;html=1;strokeColor=none;fillColor=none;align=center;verticalAlign=middle;whiteSpace=wrap;rounded=0;fontSize=16;fontStyle=1;fontColor=#006633;" parent="1" vertex="1">
          <mxGeometry x="498" y="265" width="10" height="10" as="geometry" />
        </mxCell>
        <mxCell id="uyWOBw3hdMBUtZMzsZzs-26" value="+" style="text;html=1;strokeColor=none;fillColor=none;align=center;verticalAlign=middle;whiteSpace=wrap;rounded=0;fontSize=16;fontStyle=1;fontColor=#006633;" parent="1" vertex="1">
          <mxGeometry x="498" y="245" width="10" height="10" as="geometry" />
        </mxCell>
        <mxCell id="uyWOBw3hdMBUtZMzsZzs-27" value="A" style="rounded=0;whiteSpace=wrap;html=1;" parent="1" vertex="1">
          <mxGeometry x="564" y="420" width="50" height="20" as="geometry" />
        </mxCell>
        <mxCell id="uyWOBw3hdMBUtZMzsZzs-28" value="A" style="rounded=0;whiteSpace=wrap;html=1;" parent="1" vertex="1">
          <mxGeometry x="564" y="500" width="50" height="20" as="geometry" />
        </mxCell>
        <mxCell id="uyWOBw3hdMBUtZMzsZzs-30" value="B" style="rounded=0;whiteSpace=wrap;html=1;" parent="1" vertex="1">
          <mxGeometry x="564" y="480" width="50" height="20" as="geometry" />
        </mxCell>
        <mxCell id="uyWOBw3hdMBUtZMzsZzs-31" value="B" style="rounded=0;whiteSpace=wrap;html=1;" parent="1" vertex="1">
          <mxGeometry x="564" y="540" width="50" height="20" as="geometry" />
        </mxCell>
        <mxCell id="uyWOBw3hdMBUtZMzsZzs-32" value="C" style="rounded=0;whiteSpace=wrap;html=1;" parent="1" vertex="1">
          <mxGeometry x="564" y="460" width="50" height="20" as="geometry" />
        </mxCell>
        <mxCell id="uyWOBw3hdMBUtZMzsZzs-33" value="C" style="rounded=0;whiteSpace=wrap;html=1;" parent="1" vertex="1">
          <mxGeometry x="564" y="380" width="50" height="20" as="geometry" />
        </mxCell>
        <mxCell id="uyWOBw3hdMBUtZMzsZzs-35" value="B" style="rounded=0;whiteSpace=wrap;html=1;fillColor=#ECFDFF;" parent="1" vertex="1">
          <mxGeometry x="564" y="340" width="50" height="20" as="geometry" />
        </mxCell>
        <mxCell id="uyWOBw3hdMBUtZMzsZzs-36" value="A" style="rounded=0;whiteSpace=wrap;html=1;fillColor=#ECFDFF;" parent="1" vertex="1">
          <mxGeometry x="564" y="440" width="50" height="20" as="geometry" />
        </mxCell>
        <mxCell id="uyWOBw3hdMBUtZMzsZzs-37" value="F" style="rounded=0;whiteSpace=wrap;html=1;" parent="1" vertex="1">
          <mxGeometry x="564" y="320" width="50" height="20" as="geometry" />
        </mxCell>
        <mxCell id="uyWOBw3hdMBUtZMzsZzs-39" value="G" style="rounded=0;whiteSpace=wrap;html=1;" parent="1" vertex="1">
          <mxGeometry x="564" y="400" width="50" height="20" as="geometry" />
        </mxCell>
        <mxCell id="uyWOBw3hdMBUtZMzsZzs-40" value="G" style="rounded=0;whiteSpace=wrap;html=1;" parent="1" vertex="1">
          <mxGeometry x="564" y="360" width="50" height="20" as="geometry" />
        </mxCell>
        <mxCell id="uyWOBw3hdMBUtZMzsZzs-45" value="" style="endArrow=classicThin;html=1;rounded=0;entryX=0;entryY=0.5;entryDx=0;entryDy=0;endFill=1;endSize=4;dashed=1;dashPattern=1 1;exitX=1;exitY=0.5;exitDx=0;exitDy=0;strokeColor=#B3B3B3;" parent="1" source="LfwBUIai21lKe5tmic68-30" target="uyWOBw3hdMBUtZMzsZzs-31" edge="1">
          <mxGeometry width="50" height="50" relative="1" as="geometry">
            <mxPoint x="419" y="531" as="sourcePoint" />
            <mxPoint x="464" y="560" as="targetPoint" />
          </mxGeometry>
        </mxCell>
        <mxCell id="uyWOBw3hdMBUtZMzsZzs-46" value="" style="endArrow=classicThin;html=1;rounded=0;entryX=0;entryY=0.5;entryDx=0;entryDy=0;endFill=1;endSize=4;dashed=1;dashPattern=1 1;exitX=1;exitY=0.5;exitDx=0;exitDy=0;strokeColor=#B3B3B3;" parent="1" source="LfwBUIai21lKe5tmic68-27" target="uyWOBw3hdMBUtZMzsZzs-28" edge="1">
          <mxGeometry width="50" height="50" relative="1" as="geometry">
            <mxPoint x="514" y="560" as="sourcePoint" />
            <mxPoint x="564" y="560" as="targetPoint" />
            <Array as="points">
              <mxPoint x="540" y="510" />
            </Array>
          </mxGeometry>
        </mxCell>
        <mxCell id="uyWOBw3hdMBUtZMzsZzs-47" value="" style="endArrow=classicThin;html=1;rounded=0;endFill=1;endSize=4;dashed=1;dashPattern=1 1;exitX=1;exitY=0.5;exitDx=0;exitDy=0;entryX=0;entryY=0.5;entryDx=0;entryDy=0;strokeColor=#B3B3B3;" parent="1" source="LfwBUIai21lKe5tmic68-29" target="uyWOBw3hdMBUtZMzsZzs-30" edge="1">
          <mxGeometry width="50" height="50" relative="1" as="geometry">
            <mxPoint x="510" y="500" as="sourcePoint" />
            <mxPoint x="560" y="490" as="targetPoint" />
            <Array as="points">
              <mxPoint x="540" y="490" />
            </Array>
          </mxGeometry>
        </mxCell>
        <mxCell id="uyWOBw3hdMBUtZMzsZzs-48" value="" style="endArrow=classicThin;html=1;rounded=0;endFill=1;endSize=4;dashed=1;dashPattern=1 1;entryX=0;entryY=0.5;entryDx=0;entryDy=0;exitX=1;exitY=0.5;exitDx=0;exitDy=0;strokeColor=#B3B3B3;" parent="1" source="LfwBUIai21lKe5tmic68-31" target="uyWOBw3hdMBUtZMzsZzs-32" edge="1">
          <mxGeometry width="50" height="50" relative="1" as="geometry">
            <mxPoint x="510" y="460" as="sourcePoint" />
            <mxPoint x="554" y="472" as="targetPoint" />
            <Array as="points">
              <mxPoint x="540" y="450" />
            </Array>
          </mxGeometry>
        </mxCell>
        <mxCell id="uyWOBw3hdMBUtZMzsZzs-49" value="" style="endArrow=classicThin;html=1;rounded=0;endFill=1;endSize=4;dashed=1;dashPattern=1 1;exitX=1;exitY=0.5;exitDx=0;exitDy=0;entryX=0;entryY=0.5;entryDx=0;entryDy=0;strokeColor=#004C99;strokeWidth=1.5;" parent="1" source="LfwBUIai21lKe5tmic68-35" target="uyWOBw3hdMBUtZMzsZzs-36" edge="1">
          <mxGeometry width="50" height="50" relative="1" as="geometry">
            <mxPoint x="510" y="440" as="sourcePoint" />
            <mxPoint x="554" y="470" as="targetPoint" />
            <Array as="points">
              <mxPoint x="540" y="430" />
            </Array>
          </mxGeometry>
        </mxCell>
        <mxCell id="uyWOBw3hdMBUtZMzsZzs-51" value="A" style="text;html=1;strokeColor=none;fillColor=none;align=center;verticalAlign=middle;whiteSpace=wrap;rounded=0;fontStyle=1;fontColor=#004C99;labelBackgroundColor=#CCE5FF;" parent="1" vertex="1">
          <mxGeometry x="521" y="420" width="13" height="20" as="geometry" />
        </mxCell>
        <mxCell id="uyWOBw3hdMBUtZMzsZzs-52" value="" style="endArrow=classicThin;html=1;rounded=0;endFill=1;endSize=4;dashed=1;dashPattern=1 1;exitX=1;exitY=0.5;exitDx=0;exitDy=0;entryX=0;entryY=0.5;entryDx=0;entryDy=0;strokeColor=#B3B3B3;" parent="1" source="LfwBUIai21lKe5tmic68-26" target="uyWOBw3hdMBUtZMzsZzs-27" edge="1">
          <mxGeometry width="50" height="50" relative="1" as="geometry">
            <mxPoint x="510" y="410" as="sourcePoint" />
            <mxPoint x="554" y="450" as="targetPoint" />
            <Array as="points">
              <mxPoint x="540" y="410" />
            </Array>
          </mxGeometry>
        </mxCell>
        <mxCell id="uyWOBw3hdMBUtZMzsZzs-53" value="" style="endArrow=classicThin;html=1;rounded=0;endFill=1;endSize=4;dashed=1;dashPattern=1 1;exitX=1;exitY=0.5;exitDx=0;exitDy=0;entryX=0;entryY=0.5;entryDx=0;entryDy=0;strokeColor=#B3B3B3;" parent="1" source="LfwBUIai21lKe5tmic68-38" target="uyWOBw3hdMBUtZMzsZzs-39" edge="1">
          <mxGeometry width="50" height="50" relative="1" as="geometry">
            <mxPoint x="510" y="400" as="sourcePoint" />
            <mxPoint x="550" y="400" as="targetPoint" />
            <Array as="points">
              <mxPoint x="540" y="390" />
            </Array>
          </mxGeometry>
        </mxCell>
        <mxCell id="uyWOBw3hdMBUtZMzsZzs-62" value="" style="endArrow=classicThin;html=1;rounded=0;endFill=1;endSize=4;dashed=1;dashPattern=1 1;strokeColor=#B3B3B3;exitX=1;exitY=0.5;exitDx=0;exitDy=0;entryX=0;entryY=0.5;entryDx=0;entryDy=0;" parent="1" source="LfwBUIai21lKe5tmic68-32" target="uyWOBw3hdMBUtZMzsZzs-33" edge="1">
          <mxGeometry width="50" height="50" relative="1" as="geometry">
            <mxPoint x="510" y="380" as="sourcePoint" />
            <mxPoint x="554" y="410" as="targetPoint" />
            <Array as="points">
              <mxPoint x="540" y="370" />
            </Array>
          </mxGeometry>
        </mxCell>
        <mxCell id="uyWOBw3hdMBUtZMzsZzs-63" value="" style="endArrow=classicThin;html=1;rounded=0;endFill=1;endSize=4;dashed=1;dashPattern=1 1;strokeColor=#B3B3B3;exitX=1;exitY=0.5;exitDx=0;exitDy=0;entryX=0;entryY=0.5;entryDx=0;entryDy=0;" parent="1" source="LfwBUIai21lKe5tmic68-39" target="uyWOBw3hdMBUtZMzsZzs-40" edge="1">
          <mxGeometry width="50" height="50" relative="1" as="geometry">
            <mxPoint x="510" y="360" as="sourcePoint" />
            <mxPoint x="560" y="370" as="targetPoint" />
            <Array as="points">
              <mxPoint x="540" y="350" />
            </Array>
          </mxGeometry>
        </mxCell>
        <mxCell id="uyWOBw3hdMBUtZMzsZzs-64" value="" style="endArrow=classicThin;html=1;rounded=0;endFill=1;endSize=4;dashed=1;dashPattern=1 1;strokeColor=#B3B3B3;entryX=0;entryY=0.5;entryDx=0;entryDy=0;exitX=1;exitY=0.5;exitDx=0;exitDy=0;" parent="1" source="LfwBUIai21lKe5tmic68-36" target="uyWOBw3hdMBUtZMzsZzs-37" edge="1">
          <mxGeometry width="50" height="50" relative="1" as="geometry">
            <mxPoint x="510" y="300" as="sourcePoint" />
            <mxPoint x="554" y="330" as="targetPoint" />
            <Array as="points">
              <mxPoint x="540" y="290" />
            </Array>
          </mxGeometry>
        </mxCell>
        <mxCell id="uyWOBw3hdMBUtZMzsZzs-66" value="" style="endArrow=classicThin;html=1;rounded=0;endFill=1;endSize=4;dashed=1;dashPattern=1 1;strokeColor=#004C99;exitX=1;exitY=0.5;exitDx=0;exitDy=0;entryX=0;entryY=0.5;entryDx=0;entryDy=0;strokeWidth=1.5;" parent="1" source="LfwBUIai21lKe5tmic68-34" target="uyWOBw3hdMBUtZMzsZzs-35" edge="1">
          <mxGeometry width="50" height="50" relative="1" as="geometry">
            <mxPoint x="510" y="320" as="sourcePoint" />
            <mxPoint x="570" y="320" as="targetPoint" />
            <Array as="points">
              <mxPoint x="540" y="310" />
            </Array>
          </mxGeometry>
        </mxCell>
        <mxCell id="uyWOBw3hdMBUtZMzsZzs-67" value="A" style="rounded=0;whiteSpace=wrap;html=1;fillColor=#F0FFD0;" parent="1" vertex="1">
          <mxGeometry x="564" y="300" width="50" height="20" as="geometry" />
        </mxCell>
        <mxCell id="uyWOBw3hdMBUtZMzsZzs-68" value="F" style="rounded=0;whiteSpace=wrap;html=1;fillColor=#F0FFD0;" parent="1" vertex="1">
          <mxGeometry x="564" y="280" width="50" height="20" as="geometry" />
        </mxCell>
        <mxCell id="uyWOBw3hdMBUtZMzsZzs-69" value="" style="endArrow=classicThin;html=1;rounded=0;entryX=0;entryY=0.5;entryDx=0;entryDy=0;endFill=1;endSize=4;dashed=1;dashPattern=1 1;exitX=1;exitY=0.5;exitDx=0;exitDy=0;strokeColor=#006633;strokeWidth=1.5;" parent="1" source="uyWOBw3hdMBUtZMzsZzs-19" target="uyWOBw3hdMBUtZMzsZzs-67" edge="1">
          <mxGeometry width="50" height="50" relative="1" as="geometry">
            <mxPoint x="419" y="322" as="sourcePoint" />
            <mxPoint x="464" y="300" as="targetPoint" />
          </mxGeometry>
        </mxCell>
        <mxCell id="uyWOBw3hdMBUtZMzsZzs-70" value="" style="endArrow=classicThin;html=1;rounded=0;entryX=0;entryY=0.5;entryDx=0;entryDy=0;endFill=1;endSize=4;dashed=1;dashPattern=1 1;exitX=1;exitY=0.5;exitDx=0;exitDy=0;strokeColor=#006633;strokeWidth=1.5;" parent="1" source="uyWOBw3hdMBUtZMzsZzs-20" target="uyWOBw3hdMBUtZMzsZzs-68" edge="1">
          <mxGeometry width="50" height="50" relative="1" as="geometry">
            <mxPoint x="550" y="280" as="sourcePoint" />
            <mxPoint x="574" y="340" as="targetPoint" />
          </mxGeometry>
        </mxCell>
        <mxCell id="uyWOBw3hdMBUtZMzsZzs-73" value="diff layer" style="rounded=0;whiteSpace=wrap;html=1;strokeColor=#4D4D4D;fontSize=9;strokeWidth=0.5;fontColor=#4D4D4D;" parent="1" vertex="1">
          <mxGeometry x="501" y="570" width="69" height="19" as="geometry" />
        </mxCell>
        <mxCell id="uyWOBw3hdMBUtZMzsZzs-77" value="" style="shape=trapezoid;perimeter=trapezoidPerimeter;whiteSpace=wrap;html=1;fixedSize=1;size=3.4069192751235278;strokeColor=none;" parent="1" vertex="1">
          <mxGeometry x="509" y="568" width="36" height="5" as="geometry" />
        </mxCell>
        <mxCell id="uyWOBw3hdMBUtZMzsZzs-78" value="B" style="text;html=1;strokeColor=none;fillColor=none;align=center;verticalAlign=middle;whiteSpace=wrap;rounded=0;fontStyle=1;fontColor=#004C99;labelBackgroundColor=#CCE5FF;" parent="1" vertex="1">
          <mxGeometry x="521" y="300" width="13" height="20" as="geometry" />
        </mxCell>
        <mxCell id="uyWOBw3hdMBUtZMzsZzs-79" value="" style="endArrow=classicThin;html=1;rounded=0;entryX=0;entryY=0.5;entryDx=0;entryDy=0;endFill=1;endSize=4;dashed=1;dashPattern=1 1;exitX=1;exitY=0.5;exitDx=0;exitDy=0;strokeColor=#FF3333;strokeWidth=1.5;" parent="1" source="LfwBUIai21lKe5tmic68-33" target="uyWOBw3hdMBUtZMzsZzs-12" edge="1">
          <mxGeometry width="50" height="50" relative="1" as="geometry">
            <mxPoint x="419" y="369" as="sourcePoint" />
            <mxPoint x="464" y="340" as="targetPoint" />
          </mxGeometry>
        </mxCell>
        <mxCell id="uyWOBw3hdMBUtZMzsZzs-80" value="" style="endArrow=classicThin;html=1;rounded=0;endFill=1;endSize=4;dashed=1;dashPattern=1 1;exitX=1;exitY=0.5;exitDx=0;exitDy=0;strokeColor=#FF3333;entryX=0;entryY=0.5;entryDx=0;entryDy=0;strokeWidth=1.5;" parent="1" source="LfwBUIai21lKe5tmic68-37" target="uyWOBw3hdMBUtZMzsZzs-16" edge="1">
          <mxGeometry width="50" height="50" relative="1" as="geometry">
            <mxPoint x="514" y="470" as="sourcePoint" />
            <mxPoint x="510" y="470" as="targetPoint" />
          </mxGeometry>
        </mxCell>
        <mxCell id="ojjXCeUVaQ9oF00ngKKz-1" value="B" style="rounded=0;whiteSpace=wrap;html=1;" vertex="1" parent="1">
          <mxGeometry x="564" y="520" width="50" height="20" as="geometry" />
        </mxCell>
        <mxCell id="ojjXCeUVaQ9oF00ngKKz-3" value="" style="rounded=0;whiteSpace=wrap;html=1;strokeWidth=0.5;fontStyle=1;fillColor=#F2F2F2;" vertex="1" parent="1">
          <mxGeometry x="514" y="520" width="26" height="20" as="geometry" />
        </mxCell>
        <mxCell id="ojjXCeUVaQ9oF00ngKKz-2" value="" style="endArrow=classicThin;html=1;rounded=0;endFill=1;endSize=4;dashed=1;dashPattern=1 1;strokeColor=#B3B3B3;entryX=0;entryY=0.5;entryDx=0;entryDy=0;exitX=1;exitY=0.5;exitDx=0;exitDy=0;" edge="1" parent="1" target="ojjXCeUVaQ9oF00ngKKz-1" source="LfwBUIai21lKe5tmic68-28">
          <mxGeometry width="50" height="50" relative="1" as="geometry">
            <mxPoint x="502" y="534" as="sourcePoint" />
            <mxPoint x="558" y="533" as="targetPoint" />
          </mxGeometry>
        </mxCell>
        <mxCell id="ojjXCeUVaQ9oF00ngKKz-4" value="" style="endArrow=none;html=1;rounded=0;entryX=1;entryY=0;entryDx=0;entryDy=0;exitX=0;exitY=1;exitDx=0;exitDy=0;strokeColor=#6E1515;strokeWidth=2;" edge="1" parent="1" source="uyWOBw3hdMBUtZMzsZzs-32" target="uyWOBw3hdMBUtZMzsZzs-30">
          <mxGeometry width="50" height="50" relative="1" as="geometry">
            <mxPoint x="471" y="433" as="sourcePoint" />
            <mxPoint x="521" y="383" as="targetPoint" />
          </mxGeometry>
        </mxCell>
        <mxCell id="ojjXCeUVaQ9oF00ngKKz-5" value="" style="endArrow=none;html=1;rounded=0;strokeColor=#6E1515;entryX=1;entryY=0;entryDx=0;entryDy=0;exitX=0;exitY=0;exitDx=0;exitDy=0;strokeWidth=2;" edge="1" parent="1" source="uyWOBw3hdMBUtZMzsZzs-40" target="uyWOBw3hdMBUtZMzsZzs-40">
          <mxGeometry width="50" height="50" relative="1" as="geometry">
            <mxPoint x="654" y="395" as="sourcePoint" />
            <mxPoint x="624" y="374" as="targetPoint" />
          </mxGeometry>
        </mxCell>
      </root>
    </mxGraphModel>
  </diagram>
</mxfile>
